<svg xmlns="http://www.w3.org/2000/svg" width="400" height="400" viewBox="0 0 400 400">
  <rect width="400" height="400" fill="#10002b"/>
  <ellipse cx="200" cy="260" rx="160" ry="40" fill="#240046" stroke="#5a189a" stroke-width="2"/>
  <path d="M120,260 C120,200 140,140 200,140 C260,140 280,200 280,260" fill="#3c096c" stroke="#7b2cbf" stroke-width="2"/>
  <path d="M140,260 C140,210 160,160 200,160 C240,160 260,210 260,260" fill="#5a189a" stroke="#9d4edd" stroke-width="2"/>
  <path d="M160,260 C160,220 180,180 200,180 C220,180 240,220 240,260" fill="#7b2cbf" stroke="#9d4edd" stroke-width="2"/>
  <path d="M180,260 C180,230 190,200 200,200 C210,200 220,230 220,260" fill="#9d4edd" stroke="#e0aaff" stroke-width="2"/>
  <path d="M120,260 C120,260 140,240 200,240 C260,240 280,260 280,260" fill="none" stroke="#e0aaff" stroke-width="2"/>
  <text x="200" y="350" font-family="Arial" font-size="16" fill="#e0aaff" text-anchor="middle">Adidas Yeezy Boost 350</text>
</svg> 