<svg xmlns="http://www.w3.org/2000/svg" width="400" height="400" viewBox="0 0 400 400">
  <rect width="400" height="400" fill="#10002b"/>
  <path d="M200,320 L320,280 L320,160 L280,120 L120,120 L80,160 L80,280 L200,320 Z" fill="#240046" stroke="#5a189a" stroke-width="4"/>
  <path d="M200,300 L300,270 L300,170 L270,140 L130,140 L100,170 L100,270 L200,300 Z" fill="#3c096c" stroke="#7b2cbf" stroke-width="2"/>
  <path d="M200,120 L200,60 L160,80 L120,120 Z" fill="#5a189a" stroke="#7b2cbf" stroke-width="2"/>
  <path d="M200,120 L200,60 L240,80 L280,120 Z" fill="#5a189a" stroke="#7b2cbf" stroke-width="2"/>
  <path d="M120,160 L100,170 L100,200 L120,190 Z" fill="#7b2cbf" stroke="#9d4edd" stroke-width="2"/>
  <path d="M280,160 L300,170 L300,200 L280,190 Z" fill="#7b2cbf" stroke="#9d4edd" stroke-width="2"/>
  <path d="M140,220 C140,220 160,230 200,230 C240,230 260,220 260,220" fill="none" stroke="#9d4edd" stroke-width="4" stroke-linecap="round"/>
  <circle cx="160" cy="180" r="15" fill="#9d4edd" stroke="#e0aaff" stroke-width="2"/>
  <circle cx="240" cy="180" r="15" fill="#9d4edd" stroke="#e0aaff" stroke-width="2"/>
  <text x="200" y="350" font-family="Arial" font-size="16" fill="#e0aaff" text-anchor="middle">Air Jordan 4 Retro</text>
</svg> 